<svg id="color_line" height="512" viewBox="0 0 74 74" width="512" xmlns="http://www.w3.org/2000/svg" data-name="color line"><path d="m54.967 72.19c-9.267-2.272-35.084-12.118-44.607-17.632a8.944 8.944 0 0 1 -2.5-2.065 9.232 9.232 0 0 1 -1.751-3.735l55.645 22.442c-1.225.8-2.354 2.077-6.787.99z" fill="#707583"/><path d="m57.961 73.11a13.218 13.218 0 0 1 -3.114-.434c-9.715-2.381-35.404-12.276-44.737-17.685a9.34 9.34 0 0 1 -2.638-2.183 9.645 9.645 0 0 1 -1.847-3.924.5.5 0 0 1 .671-.59l55.645 22.444a.5.5 0 0 1 .086.882c-.123.081-.245.166-.37.253a5.678 5.678 0 0 1 -3.696 1.237zm-2.875-1.41c3.313.812 4.63.259 5.616-.388l-53.823-21.704a7.8 7.8 0 0 0 1.369 2.57 8.381 8.381 0 0 0 2.363 1.948c9.276 5.374 34.814 15.211 44.475 17.574z" fill="#323c6b"/><path d="m10.253 51.864c15.887 7.042 31.856 13.624 48.289 19.177a5.646 5.646 0 0 0 6.818-2.68 45.181 45.181 0 0 0 4.718-20.836c0-24.37-9.076-41.839-34.866-44.163-18.6-.553-33.759 10.626-31.1 39.22v.069a10.2 10.2 0 0 0 6.141 9.213z" fill="#ebf0f3"/><path d="m43.068 5.827c.346-.3.542-.673.852-.95a50.788 50.788 0 0 0 -8.708-1.516c-6.9-.2-13.34 1.21-18.56 4.53a34.694 34.694 0 0 1 14.88-2.591 49.687 49.687 0 0 1 9.675 1.8 7.069 7.069 0 0 0 1.861-1.273z" fill="#e1e6e9"/><path d="m67.247 27.185a34.427 34.427 0 0 0 -8.194-13.855.457.457 0 0 1 -.049.012 13.754 13.754 0 0 0 -2.938.627c-.567.149-1.138.231-1.708.324a33.8 33.8 0 0 1 9.147 14.623 16.534 16.534 0 0 0 3.742-1.731z" fill="#e1e6e9"/><path d="m67.579 63.122a44.76 44.76 0 0 0 1.546-5.769c-1.094-.109-2.133-.517-3.23-.652a48.191 48.191 0 0 1 -1.407 6.422z" fill="#d5d6db"/><path d="m62.59 68.372c-.29.661-.59 1.309-.908 1.929a5.287 5.287 0 0 1 -.67 1 5.036 5.036 0 0 0 4.186-2.69z" fill="#d5d6db"/><path d="m67.342 27.433a33.808 33.808 0 0 1 -18.594 1.93c-10.1-1.679-13.135-7.788-18.3-7.788-8.634 0-7.971 7.661-7.971 7.661s1.412 18.214 35.723 25.747c4.035.889 7.7 1.538 11.018 2a64.874 64.874 0 0 0 -1.876-29.55z" fill="#9297ab"/><path d="m60.263 51.86a.6.6 0 0 1 -.124-.013q-.836-.175-1.692-.364c-2.651-.582-5.8-1.407-8.211-2.152a.6.6 0 1 1 .354-1.146c2.384.736 5.493 1.551 8.115 2.127q.851.188 1.681.361a.6.6 0 0 1 -.122 1.188z" fill="#fff"/><path d="m47.878 48.5a.594.594 0 0 1 -.2-.034q-.606-.211-1.193-.428a.6.6 0 0 1 .416-1.126c.384.142.775.282 1.172.421a.6.6 0 0 1 -.2 1.167z" fill="#fff"/><circle cx="31.601" cy="30.592" fill="#e1e6e9" r="4.273"/><path d="m31.6 35.365a4.773 4.773 0 1 1 4.773-4.773 4.778 4.778 0 0 1 -4.773 4.773zm0-8.546a3.773 3.773 0 1 0 3.773 3.773 3.777 3.777 0 0 0 -3.773-3.773z" fill="#323c6b"/><circle cx="31.601" cy="30.592" fill="#323c6b" r="1.661"/><path d="m65.2 68.612c-48.858-12.796-58.167-47.512-58.463-48.555a.044.044 0 0 1 -.014-.028 32.581 32.581 0 0 1 2.091-4.188s6.853 36.115 58.652 47.632a34.281 34.281 0 0 1 -2.266 5.139z" fill="#fe7058"/><path d="m44.473 5.026a26.414 26.414 0 0 1 -7.886 4.754 1.471 1.471 0 0 0 -.028 2.737c3.88 1.51 11.216 3.118 22.136.437a33.136 33.136 0 0 0 -14.222-7.928z" fill="#fe7058"/><g fill="#323c6b"><path d="m39.525 71.562a.5.5 0 0 1 -.178-.033l-.917-.345a.5.5 0 0 1 .356-.935l.916.345a.5.5 0 0 1 -.178.967z"/><path d="m36.39 70.315a.5.5 0 0 1 -.182-.034c-2.819-1.1-5.639-2.229-8.382-3.352a.5.5 0 1 1 .374-.929c2.738 1.121 5.554 2.247 8.368 3.346a.5.5 0 0 1 -.182.966z"/><path d="m14.662 6.134a.5.5 0 0 1 -.276-.917 31.461 31.461 0 0 1 10.093-4.317.5.5 0 1 1 .232.973 30.462 30.462 0 0 0 -9.775 4.174.5.5 0 0 1 -.274.087z"/><path d="m11.3 8.758a.5.5 0 0 1 -.337-.869l.412-.375a.5.5 0 1 1 .668.744l-.405.37a.5.5 0 0 1 -.338.13z"/></g><path d="m56.457 13.33c.636-.159 1.4-.441 2.05-.553a35.194 35.194 0 0 0 -13.582-7.607c-.028.167-3.024 1.838-3.236 1.979a40.559 40.559 0 0 1 12.066 6.614c.925-.203 1.776-.201 2.702-.433z" fill="#ea6453"/><path d="m65.852 56.469c1.114.137 2.252.409 3.367.518a58.028 58.028 0 0 0 .863-9.465 71.069 71.069 0 0 0 -2.615-19.93 18.556 18.556 0 0 1 -3.961 1.324 73.09 73.09 0 0 1 2.9 20.546 59.2 59.2 0 0 1 -.554 7.007z" fill="#84879c"/><path d="m65.59 67.872a39.927 39.927 0 0 0 1.847-4.372l-2.809-.691c-.458 1.525-1.24 3.676-1.828 5.066l2.4.739z" fill="#ea6453"/><path d="m60.369 71.841a6.2 6.2 0 0 1 -1.987-.327c-14.441-4.879-29.799-10.978-48.332-19.194a10.677 10.677 0 0 1 -6.441-9.67c-1.272-13.739 1.391-24.214 7.909-31.157 5.582-5.943 13.801-8.925 23.709-8.632 23.467 2.114 35.351 17.139 35.351 44.663a45.585 45.585 0 0 1 -4.778 21.065 6.1 6.1 0 0 1 -5.431 3.252zm-26.494-68c-9.026 0-16.493 2.869-21.628 8.338-6.316 6.721-8.886 16.937-7.64 30.355v.115a9.677 9.677 0 0 0 5.846 8.757c18.507 8.203 33.838 14.294 48.247 19.161a5.148 5.148 0 0 0 6.213-2.436 44.6 44.6 0 0 0 4.662-20.607c0-27.3-11.256-41.578-34.411-43.665-.431-.013-.864-.02-1.289-.02z" fill="#323c6b"/><path d="m69.219 57.486a.484.484 0 0 1 -.07 0c-3.533-.5-7.252-1.172-11.057-2.01-34.279-7.527-36.054-25.438-36.113-26.2a8.21 8.21 0 0 1 1.932-5.776c1.473-1.606 3.673-2.421 6.539-2.421 2.487 0 4.5 1.325 6.83 2.86a27.846 27.846 0 0 0 11.55 4.931 33.088 33.088 0 0 0 17.87-1.743l.479-.167a.507.507 0 0 1 .388.025.5.5 0 0 1 .252.295 65.533 65.533 0 0 1 1.894 29.788.5.5 0 0 1 -.494.418zm-38.769-35.411c-2.574 0-4.526.706-5.8 2.1a7.274 7.274 0 0 0 -1.671 5.021c.015.182 1.842 17.949 35.331 25.3 3.606.794 7.134 1.442 10.5 1.927a64.659 64.659 0 0 0 -1.79-28.348 33.989 33.989 0 0 1 -18.352 1.782 28.711 28.711 0 0 1 -11.938-5.087c-2.287-1.505-4.093-2.695-6.28-2.695z" fill="#323c6b"/><path d="m47.509 14.9a30.558 30.558 0 0 1 -11.132-1.919 1.922 1.922 0 0 1 -1.236-1.831 1.969 1.969 0 0 1 1.265-1.839 25.933 25.933 0 0 0 7.738-4.666.5.5 0 0 1 .466-.1 33.389 33.389 0 0 1 14.432 8.055.5.5 0 0 1 -.229.844 47.4 47.4 0 0 1 -11.304 1.456zm-2.915-9.318a26.9 26.9 0 0 1 -7.828 4.666.964.964 0 0 0 -.625.911.928.928 0 0 0 .6.9c4.03 1.568 10.9 2.919 20.93.629a32.618 32.618 0 0 0 -13.077-7.106z" fill="#323c6b"/><path d="m65.2 69.112a.51.51 0 0 1 -.126-.016c-47.314-12.396-57.767-45.156-58.807-48.865a.533.533 0 0 1 -.044-.2.5.5 0 0 1 .039-.193 33.192 33.192 0 0 1 2.124-4.252.5.5 0 0 1 .919.165c.068.358 7.419 35.931 58.27 47.237a.5.5 0 0 1 .363.656 34.458 34.458 0 0 1 -2.3 5.214.5.5 0 0 1 -.438.254zm-57.944-49.06c1.221 4.248 11.744 35.785 57.69 47.976a33.249 33.249 0 0 0 1.854-4.192c-45.629-10.366-56.36-40.214-58.168-46.666-.475.881-.932 1.846-1.376 2.882z" fill="#323c6b"/></svg>